PathFileType	4	(X/Y/Z)	HSS_squat4.trc
DataRate	CameraRate	NumFrames	NumMarkers	Units	OrigDataRate	OrigDataStartFrame	OrigNumFrames
120.0	120.0	7	44	mm	120.0	244	973
Frame#	Time		R.Shoulder		Offset		L.Shoulder		R.Elbow		R.Wrist.Radial		R.Wrist		R.Hand		L.Elbow		L.Wrist.Radial		L.Wrist		L.Hand		R.Hip		V.Sacral		L.PSIS		L.Hip		R.Thigh.Upper		R.Thigh.Front		R.Thigh.Rear		X.Shell.Lower.Thigh.Right		R.Knee.Lateral		R.Shank.Upper		R.Shank.Front		R.Shank.Rear		X.Shell.Lower.Shank.Right		R.Ankle.Lateral		R.Heel		R.Toe		L.Thigh.Upper		L.Thigh.Front		L.Thigh.Rear		X.Shell.Lower.Thigh.Left		L.Knee.Lateral		L.Shank.Upper		L.Shank.Front		L.Shank.Rear		X.Shell.Lower.Shank.Left		L.Ankle.Lateral		L.Heel		L.Toe		R.Troc		L.Troc		R.PSIS		L.ASIS		R.ASIS
			X1	Y1	Z1	X2	Y2	Z2	X3	Y3	Z3	X4	Y4	Z4	X5	Y5	Z5	X6	Y6	Z6	X7	Y7	Z7	X8	Y8	Z8	X9	Y9	Z9	X10	Y10	Z10	X11	Y11	Z11	X12	Y12	Z12	X13	Y13	Z13	X14	Y14	Z14	X15	Y15	Z15	X16	Y16	Z16	X17	Y17	Z17	X18	Y18	Z18	X19	Y19	Z19	X20	Y20	Z20	X21	Y21	Z21	X22	Y22	Z22	X23	Y23	Z23	X24	Y24	Z24	X25	Y25	Z25	X26	Y26	Z26	X27	Y27	Z27	X28	Y28	Z28	X29	Y29	Z29	X30	Y30	Z30	X31	Y31	Z31	X32	Y32	Z32	X33	Y33	Z33	X34	Y34	Z34	X35	Y35	Z35	X36	Y36	Z36	X37	Y37	Z37	X38	Y38	Z38	X39	Y39	Z39	X40	Y40	Z40	X41	Y41	Z41	X42	Y42	Z42	X43	Y43	Z43	X44	Y44	Z44

244	2.02500	145.98216	1474.44678	-53.02946	-134.22983	1357.12244	34.08842	-196.36189	1485.37280	-57.93836	301.86191	1313.36365	-337.31393	74.25285	1369.85107	-474.08679	117.20050	1411.10144	-516.01331	32.95294	1413.12244	-545.87982	-356.81165	1343.09326	-349.01639	-121.78922	1372.72375	-476.30084	-163.76933	1416.80725	-515.40265	-78.62192	1404.76135	-541.85126	123.50778	1033.77271	-152.83789	-26.14847	1017.54816	-33.44262	-66.57166	1023.23596	-36.28349	-172.67929	1034.62939	-156.47102	179.38657	696.65466	-182.50464	167.84904	657.41266	-215.44176	190.55072	659.58862	-157.90382	176.81442	625.10754	-185.39243	170.36197	518.22113	-119.67018	230.98718	378.71182	-96.75641	213.88518	332.89786	-125.38202	220.48521	341.32849	-65.17173	217.85396	300.38983	-88.46770	189.55888	72.21770	-81.93839	141.79909	33.30596	-41.79409	201.97597	31.29135	-237.82335	-221.37697	696.56378	-196.77910	-204.05905	645.11237	-216.09648	-237.78918	662.14825	-165.87750	-229.41327	626.35858	-191.82613	-215.80342	510.29276	-122.63427	-273.53815	316.63507	-84.21738	-260.72272	290.94543	-112.41199	-262.69611	276.67059	-54.00740	-269.03503	246.29922	-76.44775	-240.48840	75.81895	-95.09772	-196.29318	34.79448	-41.80046	-241.53793	32.27293	-241.18373	164.07880	896.87140	-161.22362	-213.16794	902.63397	-155.58813	17.13126	1021.31775	-34.07172	-131.80063	999.85803	-220.34695	91.25928	997.43158	-213.08208
245	2.03333	145.91248	1474.45557	-52.99822	-134.26788	1357.09998	34.13388	-196.41856	1485.37805	-57.88557	301.81320	1313.41235	-337.33649	74.17856	1369.92639	-474.06381	117.12457	1411.22949	-515.94006	32.90290	1413.25647	-545.81683	-356.84518	1343.16443	-348.99179	-121.75380	1372.78784	-476.25162	-163.83649	1416.86584	-515.39612	-78.63739	1404.81689	-541.79541	123.51045	1033.77783	-152.82158	-26.13123	1017.53693	-33.43844	-66.57430	1023.21979	-36.27079	-172.69199	1034.63367	-156.47417	179.35997	696.65344	-182.49701	167.83414	657.43286	-215.44704	190.54660	659.58374	-157.90385	176.80345	625.10254	-185.38509	170.36992	518.22565	-119.65675	230.98952	378.70642	-96.73784	213.87216	332.88840	-125.36806	220.48586	341.32767	-65.15171	217.85336	300.37814	-88.45547	189.56281	72.21398	-81.94621	141.80055	33.30357	-41.78492	201.95396	31.31383	-237.83247	-221.39278	696.57477	-196.80382	-204.06248	645.09967	-216.10925	-237.80486	662.15210	-165.89522	-229.41306	626.35236	-191.84866	-215.79979	510.29395	-122.63770	-273.53693	316.63791	-84.22456	-260.73053	290.94553	-112.39857	-262.70020	276.67709	-54.00061	-269.03766	246.29538	-76.45391	-240.48834	75.82551	-95.09492	-196.30424	34.78369	-41.79782	-241.50218	32.28035	-241.19020	164.10406	896.86481	-161.23027	-213.16289	902.64117	-155.57709	17.14060	1021.30450	-34.05677	-131.81189	999.86285	-220.34685	91.24826	997.45276	-213.10399
246	2.04167	145.88257	1474.44238	-52.93479	-134.27670	1357.09021	34.17101	-196.46016	1485.37805	-57.81231	301.76242	1313.45374	-337.33002	74.10453	1369.94202	-474.09018	117.06282	1411.32690	-515.87305	32.85878	1413.34998	-545.81915	-356.87878	1343.22168	-348.94189	-121.84278	1372.84961	-476.25314	-163.87492	1416.93250	-515.34064	-78.65987	1404.88025	-541.76288	123.50938	1033.77063	-152.80319	-26.15377	1017.52600	-33.43597	-66.57809	1023.21027	-36.28942	-172.68686	1034.61743	-156.45088	179.37065	696.65497	-182.48773	167.84273	657.40125	-215.42499	190.53288	659.57080	-157.88068	176.80017	625.10413	-185.37988	170.37228	518.24500	-119.63522	230.98759	378.71625	-96.71315	213.86623	332.89273	-125.34962	220.48190	341.33014	-65.12020	217.84955	300.39896	-88.45461	189.55429	72.22169	-81.95235	141.77977	33.29832	-41.75455	201.98155	31.29949	-237.82904	-221.40317	696.58112	-196.79619	-204.10434	645.12842	-216.13986	-237.81691	662.16327	-165.86583	-229.42862	626.34912	-191.84630	-215.80360	510.30090	-122.63301	-273.54581	316.64380	-84.22971	-260.72845	290.95059	-112.40720	-262.70288	276.68198	-53.99944	-269.04156	246.29825	-76.43215	-240.49458	75.81742	-95.09758	-196.31772	34.79822	-41.76946	-241.52960	32.26631	-241.17633	164.08958	896.86603	-161.20607	-213.16377	902.63989	-155.55249	17.13862	1021.30432	-34.04303	-131.82526	999.89783	-220.36067	91.25476	997.43665	-213.05637
247	2.05000	145.83640	1474.45789	-52.88770	-134.34860	1357.05457	34.27990	-196.50352	1485.38037	-57.74888	301.70142	1313.50183	-337.30191	74.06472	1369.98511	-474.05090	117.01944	1411.39453	-515.81311	32.81412	1413.41162	-545.77002	-356.92731	1343.28210	-348.92181	-121.79405	1372.85608	-476.21692	-163.90518	1416.98926	-515.34235	-78.66009	1404.94275	-541.70184	123.50721	1033.77222	-152.80171	-26.13116	1017.49622	-33.45597	-66.57877	1023.21594	-36.27447	-172.68416	1034.61780	-156.49138	179.38152	696.64746	-182.45837	167.83060	657.41321	-215.42378	190.53497	659.57361	-157.86626	176.80983	625.10321	-185.33926	170.34248	518.24408	-119.62656	230.98656	378.71225	-96.70017	213.87601	332.89859	-125.32450	220.46948	341.31409	-65.10034	217.84413	300.38843	-88.40919	189.54912	72.21708	-81.96469	141.79167	33.31223	-41.75843	201.95065	31.31674	-237.83899	-221.43243	696.57422	-196.77672	-204.09915	645.12262	-216.12834	-237.81512	662.15747	-165.87016	-229.43861	626.35834	-191.83153	-215.80959	510.29221	-122.63593	-273.53293	316.63916	-84.21604	-260.72205	290.94495	-112.40135	-262.70560	276.67294	-53.97260	-269.03302	246.30055	-76.42084	-240.49246	75.81242	-95.09279	-196.30968	34.78239	-41.79553	-241.52068	32.24810	-241.15704	164.08090	896.86151	-161.20561	-213.15329	902.63049	-155.55798	17.14470	1021.29022	-34.05219	-131.79752	999.88818	-220.36887	91.26137	997.43311	-213.07234
248	2.05833	145.77304	1474.47229	-52.85810	-134.33911	1357.04871	34.27350	-196.53778	1485.39636	-57.70007	301.66141	1313.52844	-337.28641	74.00566	1370.03088	-474.04047	116.97238	1411.42371	-515.80676	32.76624	1413.45801	-545.76794	-356.97015	1343.31543	-348.88629	-121.76263	1372.89307	-476.16647	-163.96318	1417.02893	-515.33331	-78.69337	1404.96936	-541.65698	123.49739	1033.78662	-152.80807	-26.13960	1017.50586	-33.45306	-66.58907	1023.20032	-36.27559	-172.67038	1034.60376	-156.49542	179.38901	696.63055	-182.45711	167.86552	657.40942	-215.40245	190.52716	659.55133	-157.83223	176.79659	625.08636	-185.33928	170.35052	518.22418	-119.61964	230.98549	378.70996	-96.70564	213.85806	332.86551	-125.31101	220.45055	341.32700	-65.11157	217.85223	300.38840	-88.40549	189.57065	72.23489	-81.97379	141.79298	33.29575	-41.75207	201.97900	31.29977	-237.83281	-221.42484	696.57684	-196.81253	-204.10048	645.11493	-216.13025	-237.83653	662.16003	-165.88605	-229.44516	626.35760	-191.86214	-215.80803	510.30832	-122.65710	-273.52957	316.63867	-84.21261	-260.74271	290.94601	-112.37148	-262.70914	276.66644	-53.98404	-269.03745	246.29768	-76.44940	-240.48729	75.80648	-95.10641	-196.30223	34.78651	-41.79977	-241.52321	32.27585	-241.18462	164.08185	896.84644	-161.21815	-213.15149	902.63232	-155.55991	17.13370	1021.29510	-34.05127	-131.79352	999.87860	-220.37248	91.26954	997.43762	-213.09151
249	2.06667	145.71149	1474.49170	-52.83258	-134.36739	1357.01611	34.32921	-196.55408	1485.38062	-57.63345	301.60840	1313.54907	-337.26236	73.98625	1370.05176	-474.02026	116.93046	1411.46814	-515.78638	32.71774	1413.47571	-545.73383	-357.00833	1343.36963	-348.85342	-121.78666	1372.89575	-476.17416	-163.98097	1417.07678	-515.32758	-78.73059	1405.02319	-541.64240	123.49654	1033.78931	-152.82138	-26.14209	1017.49176	-33.45107	-66.58974	1023.20782	-36.28709	-172.68527	1034.60620	-156.51416	179.38484	696.62921	-182.42877	167.84967	657.38684	-215.39395	190.53349	659.55646	-157.80357	176.80040	625.10559	-185.33597	170.36978	518.23163	-119.58901	230.98470	378.70581	-96.70564	213.86696	332.88028	-125.32073	220.47458	341.32141	-65.09617	217.83820	300.38498	-88.39548	189.56200	72.21605	-81.94396	141.80981	33.30125	-41.76231	201.96999	31.30586	-237.82048	-221.42610	696.57733	-196.82256	-204.09940	645.11938	-216.14119	-237.80714	662.15991	-165.88927	-229.45322	626.35785	-191.86565	-215.80513	510.30286	-122.63248	-273.53049	316.63840	-84.19999	-260.72855	290.95212	-112.38405	-262.69543	276.67105	-53.99250	-269.03888	246.29883	-76.45810	-240.48598	75.80801	-95.10748	-196.32040	34.79615	-41.78785	-241.52245	32.25990	-241.16304	164.09181	896.85254	-161.19708	-213.14961	902.61963	-155.59204	17.12953	1021.28979	-34.05839	-131.78728	999.85962	-220.34326	91.27290	997.43433	-213.06874
250	2.07500	145.65468	1474.49023	-52.78441	-134.43117	1356.97424	34.41513	-196.60667	1485.38599	-57.57951	301.56464	1313.56689	-337.22705	73.93069	1370.08301	-473.98581	116.87724	1411.48389	-515.76489	32.70171	1413.49719	-545.69043	-357.05701	1343.40308	-348.81485	-121.80708	1372.93799	-476.13663	-163.99442	1417.13733	-515.29535	-78.76859	1405.08154	-541.62897	123.49602	1033.80444	-152.81369	-26.12781	1017.49738	-33.44555	-66.57368	1023.19812	-36.27905	-172.67125	1034.59167	-156.50975	179.40256	696.64532	-182.43549	167.86389	657.39929	-215.38939	190.54819	659.55823	-157.81329	176.81516	625.09857	-185.33067	170.35338	518.23682	-119.60994	230.97514	378.71127	-96.69090	213.86906	332.88403	-125.29703	220.44888	341.31152	-65.06990	217.83897	300.38596	-88.37950	189.56653	72.20629	-81.95200	141.80341	33.29757	-41.78130	201.96664	31.31039	-237.81572	-221.42123	696.56287	-196.81168	-204.08969	645.10754	-216.12813	-237.81581	662.15680	-165.89940	-229.43669	626.36536	-191.85442	-215.80869	510.30457	-122.64675	-273.51962	316.62643	-84.23042	-260.72061	290.95084	-112.40285	-262.69177	276.66492	-53.99594	-269.02148	246.30722	-76.44618	-240.49867	75.81818	-95.09171	-196.31490	34.79494	-41.76431	-241.51773	32.27567	-241.17462	164.11502	896.85126	-161.22382	-213.14693	902.62244	-155.58133	17.13067	1021.28558	-34.03923	-131.80708	999.86285	-220.36374	91.27425	997.44397	-213.08070
